<svg id="Layer_1" data-name="Layer 1" xmlns="http://www.w3.org/2000/svg" viewBox="0 0 572.11 447.66"><defs><style>.cls-1{fill:#231f20;}</style></defs><path class="cls-1" d="M81.77,269.08l213.48-70.37a24.17,24.17,0,0,1,15.67,0L529.83,272a6.22,6.22,0,0,1,.17,11.71L313.21,356.84a24,24,0,0,1-16.74,0L81.61,281.4A6.54,6.54,0,0,1,81.77,269.08Z" transform="translate(-11.95 -197.39)"/><path class="cls-1" d="M316.3,488.65V378.91s19.83-6.61,28.42-7.93,109.08-35.7,109.08-35.7V465.52s1.33,8.81-14.54,8.15-99.38,1.54-104,1.54S320.26,486.67,316.3,488.65Z" transform="translate(-11.95 -197.39)"/><path class="cls-1" d="M290.32,488.65V378.91S270.49,372.3,261.9,371s-109.08-35.7-109.08-35.7V465.52s-1.32,8.81,14.54,8.15,99.38,1.54,104,1.54S286.36,486.67,290.32,488.65Z" transform="translate(-11.95 -197.39)"/><path class="cls-1" d="M92,543.27v10.05H67.46v90H36.66v-90H12V543.27Z" transform="translate(-11.95 -197.39)"/><path class="cls-1" d="M168.58,567.54v75.82H141.81v-11.8q-9.24,13.2-23.76,13.2-19.58,0-19.58-19.07V569.45q13.5-.59,26.77-1.91V625q0,7.49,4.55,7.48,12,0,12-25.81V569.45Q155.23,568.86,168.58,567.54Z" transform="translate(-11.95 -197.39)"/><path class="cls-1" d="M223.57,569.67V578H211.69v52.29q0,4.9,3.16,4.91c1.51,0,2.42-1.1,2.71-3.3l7.63.73q-3.16,11.59-20.1,11.59-20.16,0-20.16-17.16V578h-9v-8.28h9v-13a121,121,0,0,0,26.76-11v24Z" transform="translate(-11.95 -197.39)"/><path class="cls-1" d="M265.37,567.54q36.66,0,36.66,38.72T265.37,645q-36.74,0-36.74-38.72T265.37,567.54Zm-.07,6.53q-8.88,0-8.88,32.19t8.88,32.19q8.94,0,8.94-32.19T265.3,574.07Z" transform="translate(-11.95 -197.39)"/><path class="cls-1" d="M366.49,596.29H348.16a56,56,0,0,1,1.68-6.38,16.9,16.9,0,0,0,1-5.43c0-3.13-1.13-4.69-3.37-4.69-1.72,0-3.35,2.06-4.92,6.19a36.76,36.76,0,0,0-2.34,13.09v44.29H313.47V569.45l5.21.07a138.19,138.19,0,0,0,21.56-2v12.17q6.52-12.16,16-12.17,12.91,0,12.91,14.23a35,35,0,0,1-1.25,8.58C367.59,591.67,367.12,593.65,366.49,596.29Z" transform="translate(-11.95 -197.39)"/><path class="cls-1" d="M452,543.27V643.36H429.77L388,580v63.35h-9.75V543.27h18.41l45.61,68.42V543.27Z" transform="translate(-11.95 -197.39)"/><path class="cls-1" d="M520.4,616.31l10.78,3.15Q529.5,645.05,501,645.05q-37,0-37-36.88,0-17.89,9.82-29.34A31.67,31.67,0,0,1,499,567.4q32,0,32,41.35H492q0,29,14.74,29,13.79,0,13.78-16.43C520.55,619.9,520.5,618.21,520.4,616.31ZM492,600.47h16q0-25.82-7.77-25.82-7.05,0-7.92,19.14Z" transform="translate(-11.95 -197.39)"/><path class="cls-1" d="M582.44,569.67V578H570.56v52.29q0,4.9,3.15,4.91c1.52,0,2.42-1.1,2.72-3.3l7.62.73Q580.9,644.17,564,644.17q-20.16,0-20.16-17.16V578h-8.95v-8.28h8.95v-13a121,121,0,0,0,26.76-11v24Z" transform="translate(-11.95 -197.39)"/></svg>